<svg id="Layer_1" data-name="Layer 1" xmlns="http://www.w3.org/2000/svg" viewBox="0 0 951.41 159.37"><defs><style>.cls-1,.cls-2{fill:#d7282f;}.cls-2{fill-rule:evenodd;}</style></defs><path class="cls-1" d="M141.11,319.05A11.12,11.12,0,1,1,130,307.78a11.12,11.12,0,0,1,11.11,11.27Z" transform="translate(-75.97 -197.78)"/><ellipse class="cls-1" cx="146.01" cy="121.27" rx="11.12" ry="11.26"/><path class="cls-1" d="M129.33,245.12a2.57,2.57,0,0,1,.62-2,2.52,2.52,0,0,1,1.9-.87H162a2.52,2.52,0,0,1,2.2,1.29,2.62,2.62,0,0,1,0,2.57l-15.53,27.26a2.53,2.53,0,0,1-3.45,1,2.63,2.63,0,0,1-.4-.28,45.65,45.65,0,0,1-15.34-27.68C129.44,246.07,129.39,245.62,129.33,245.12Zm48.78,39.61a44.08,44.08,0,0,1-21.69-3.44,2.56,2.56,0,0,1-1.42-1.55,2.61,2.61,0,0,1,.21-2.1l18-31.53a2.52,2.52,0,0,1,4.4,0L195,276.63a2.55,2.55,0,0,1-1.07,3.56,44.62,44.62,0,0,1-15.82,4.54Zm30.51-16.28a45.62,45.62,0,0,1-3.53,3.83A2.5,2.5,0,0,1,203,273a2.53,2.53,0,0,1-1.84-1.26L186.55,246.1a2.57,2.57,0,0,1,0-2.57,2.52,2.52,0,0,1,2.2-1.29h27.39a2.54,2.54,0,0,1,1.91.87,2.65,2.65,0,0,1,.62,2,45.73,45.73,0,0,1-10,23.34Z" transform="translate(-75.97 -197.78)"/><path class="cls-1" d="M227.64,242.24c-1.78,26-22,47.68-48.41,50.15-29.33,2.74-55.43-19.23-58.13-49C118.65,216.51,101.36,199,76,197.78v18.73c15.69,1.15,25.19,11.25,26.77,28.6,3.43,37.73,34.84,66.16,71.54,66.16,2.19,0,4.4-.1,6.65-.31,36-3.36,63.38-33.2,65.18-68.75Z" transform="translate(-75.97 -197.78)"/><path class="cls-2" d="M439.61,277.77c1.41-8.91,7.3-14.47,16.18-14.47,7,0,12.09,6.83,10.88,14.47Zm54.16,16.86c5.22-30.22-8.14-51.54-35.92-51.54-24.05,0-45.29,17.5-49.64,44.86-4.44,28,11.75,43.27,35.8,43.27,17.47,0,37.45-6.83,45.89-27.51H461.41A14.25,14.25,0,0,1,449.08,311c-7.88,0-13.71-6.52-12.15-16.39Z" transform="translate(-75.97 -197.78)"/><path class="cls-2" d="M574.25,328.84,592.42,214.3H562.64l-6.28,39.61c-5-8.27-11.17-10.82-20.63-10.82-17.89,0-34.63,18-39,45.66-3.74,23.54,4.71,42.47,27.33,42.47,9.6,0,16.56-3.34,25.2-13.51l-1.78,11.13Zm-39-21.48c-9.73,0-10.12-10.18-8.74-18.93,1.47-9.22,5.86-19.72,15.73-19.72s11.15,10,9.69,19.24C550.39,297.66,545.56,307.36,535.25,307.36Z" transform="translate(-75.97 -197.78)"/><path class="cls-2" d="M751.81,277.77c1.41-8.91,7.31-14.47,16.18-14.47,7,0,12.09,6.83,10.87,14.47ZM806,294.63c5.24-30.22-8.13-51.54-35.91-51.54-24.06,0-45.29,17.5-49.64,44.86-4.45,28,11.75,43.27,35.8,43.27,17.47,0,37.45-6.83,45.89-27.51H773.61A14.25,14.25,0,0,1,761.28,311c-7.88,0-13.71-6.52-12.15-16.39Z" transform="translate(-75.97 -197.78)"/><path class="cls-2" d="M907.56,277.77c1.41-8.91,7.3-14.47,16.19-14.47,7,0,12.07,6.83,10.87,14.47Zm54.16,16.86c5.22-30.22-8.15-51.54-35.92-51.54-24,0-45.3,17.5-49.64,44.86-4.44,28,11.75,43.27,35.8,43.27,17.46,0,37.45-6.83,45.88-27.51H929.35A14.23,14.23,0,0,1,917,311c-7.86,0-13.7-6.52-12.13-16.39Z" transform="translate(-75.97 -197.78)"/><polygon class="cls-1" points="227.85 131.06 234.23 90.8 271.17 90.8 275.41 64.08 238.47 64.08 241.78 43.24 288.17 43.24 292.41 16.52 212.23 16.52 194.05 131.06 227.85 131.06 227.85 131.06"/><path class="cls-1" d="M346.62,328.84H376.4L381,300c2.86-18,10-24.33,22.19-24.33a38.14,38.14,0,0,1,6,1l5.25-33.09a30,30,0,0,0-3.78-.48c-11.6,0-19.89,6.21-26.11,19.25h-.29l2.68-16.86H359.85l-13.23,83.36Z" transform="translate(-75.97 -197.78)"/><polygon class="cls-1" points="547.35 131.06 553.5 92.24 555.61 74.43 556.86 57.57 557.15 57.57 564.24 131.06 587.72 131.06 618.14 57.57 618.43 57.57 613.42 78.24 610.18 96.06 604.62 131.06 634.97 131.06 653.15 16.52 612.35 16.52 582.82 87.94 575.98 16.52 535.16 16.52 516.99 131.06 547.35 131.06 547.35 131.06"/><path class="cls-1" d="M834.68,245.48H804.75l12.58,75.88c1.55,9.22-1.07,12.25-10.38,12.25-2,0-4-.16-6.13-.16l-3.66,23.07c2.28,0,7.62.63,13.07.63,26.48,0,30.91-8.11,42.88-33.89l36.4-77.78H860.87l-21.18,51.38-5-51.38Z" transform="translate(-75.97 -197.78)"/><path class="cls-1" d="M959.59,328.84h29.77l4.57-28.8c2.86-18,10-24.33,22.19-24.33a38.14,38.14,0,0,1,6,1l5.26-33.09a30.2,30.2,0,0,0-3.79-.48c-11.6,0-19.89,6.21-26.11,19.25h-.28l2.67-16.86H972.81l-13.22,83.36Z" transform="translate(-75.97 -197.78)"/><path class="cls-1" d="M1012.83,308.66a10.76,10.76,0,1,1-.05,0Zm-.05,1.68a9.18,9.18,0,0,0,.05,18.33,8.81,8.81,0,0,0,8.67-9v-.17a8.92,8.92,0,0,0-8.63-9.2h-.09Zm-2,15.46h-1.92V313.71a21.7,21.7,0,0,1,3.41-.29,6.32,6.32,0,0,1,3.75.92,2.85,2.85,0,0,1,1.11,2.5,3,3,0,0,1-2.36,2.93v.1c1.06.19,1.78,1.16,2,2.93a10.13,10.13,0,0,0,.77,3h-2a9.24,9.24,0,0,1-.81-3.09,2.27,2.27,0,0,0-2.39-2.14l-.22,0h-1.34Zm0-6.7h1.39c1.59,0,2.94-.58,2.94-2.07,0-1.06-.77-2.11-2.94-2.11a9.19,9.19,0,0,0-1.39.1Z" transform="translate(-75.97 -197.78)"/></svg>